<svg xmlns="http://www.w3.org/2000/svg" viewBox="0 0 256 245" role="img" aria-labelledby="title desc">
  <title id="title">MFSYS Technologies Limited</title>
  <desc id="desc">MFSYS Technologies Limited corporate logo</desc>
  <defs>
    <pattern id="maze" width="18" height="18" patternUnits="userSpaceOnUse">
      <path d="M2 2h14v5H7v9H2zM16 16H2v-5h9V2h5z" fill="none" stroke="#1B1B1B" stroke-width="1.5"/>
    </pattern>
  </defs>
  <g transform="translate(128 64)">
    <circle r="52" fill="none" stroke="#0A83C6" stroke-width="20" stroke-dasharray="16 11"/>
    <g fill="#AAA79D">
      <circle cx="0" cy="-59" r="8"/><circle cx="42" cy="-42" r="8"/><circle cx="59" cy="0" r="8"/>
      <circle cx="42" cy="42" r="8"/><circle cx="0" cy="59" r="8"/><circle cx="-42" cy="42" r="8"/>
      <circle cx="-59" cy="0" r="8"/><circle cx="-42" cy="-42" r="8"/>
    </g>
    <circle r="43" fill="#E8E5DD" stroke="#1B1B1B" stroke-width="3"/>
    <circle r="37" fill="url(#maze)" opacity=".95"/>
    <circle r="37" fill="none" stroke="#1B1B1B" stroke-width="3"/>
    <circle r="21" fill="#E8E5DD" stroke="#1B1B1B" stroke-width="4"/>
    <path d="M0-16 16 0 0 16-16 0Z" fill="#087CB9" stroke="#1B1B1B" stroke-width="3"/>
    <path d="M-31-19-18-12-23 1-36-6zm31-19 13 7-5 13-13-7zm31 19 13-7 5 13-13 7zM0 38 13 31l5 13-13 7zM-31 19-18 12l5 13-13 7z" fill="#1B1B1B"/>
  </g>
  <text x="128" y="154" text-anchor="middle" font-family="Georgia, 'Times New Roman', serif" font-size="53" letter-spacing="-3" fill="#087CB9">MF<tspan fill="#D8D4CA">SYS</tspan></text>
  <text x="128" y="177" text-anchor="middle" font-family="Arial, Helvetica, sans-serif" font-size="13" font-weight="700" letter-spacing="1.6" fill="#AAA79D">TECHNOLOGIES LIMITED</text>
</svg>